<svg width="400" height="300" viewBox="0 0 400 300" xmlns="http://www.w3.org/2000/svg">
  <defs>
    <linearGradient id="shieldGradient" x1="0%" y1="0%" x2="100%" y2="100%">
      <stop offset="0%" style="stop-color:#3b82f6;stop-opacity:1" />
      <stop offset="100%" style="stop-color:#1d4ed8;stop-opacity:1" />
    </linearGradient>
    <linearGradient id="documentGradient" x1="0%" y1="0%" x2="100%" y2="100%">
      <stop offset="0%" style="stop-color:#f8fafc;stop-opacity:1" />
      <stop offset="100%" style="stop-color:#e2e8f0;stop-opacity:1" />
    </linearGradient>
  </defs>
  
  <!-- Background -->
  <rect width="400" height="300" fill="#0f172a" rx="20"/>
  
  <!-- Document -->
  <rect x="220" y="60" width="140" height="180" fill="url(#documentGradient)" rx="8" stroke="#cbd5e1" stroke-width="2"/>
  
  <!-- Document lines -->
  <line x1="240" y1="90" x2="340" y2="90" stroke="#64748b" stroke-width="2"/>
  <line x1="240" y1="110" x2="340" y2="110" stroke="#64748b" stroke-width="2"/>
  <line x1="240" y1="130" x2="320" y2="130" stroke="#64748b" stroke-width="2"/>
  <line x1="240" y1="150" x2="340" y2="150" stroke="#64748b" stroke-width="2"/>
  <line x1="240" y1="170" x2="300" y2="170" stroke="#64748b" stroke-width="2"/>
  <line x1="240" y1="190" x2="340" y2="190" stroke="#64748b" stroke-width="2"/>
  <line x1="240" y1="210" x2="320" y2="210" stroke="#64748b" stroke-width="2"/>
  
  <!-- Shield -->
  <path d="M 80 50 Q 80 40, 90 40 L 150 40 Q 160 40, 160 50 L 160 120 Q 160 140, 150 150 L 120 180 L 90 150 Q 80 140, 80 120 Z" 
        fill="url(#shieldGradient)" 
        stroke="#1e40af" 
        stroke-width="3"/>
  
  <!-- Checkmark inside shield -->
  <path d="M 100 120 L 115 135 L 140 100" 
        stroke="#ffffff" 
        stroke-width="6" 
        fill="none" 
        stroke-linecap="round" 
        stroke-linejoin="round"/>
  
  <!-- Connection line -->
  <line x1="160" y1="120" x2="220" y2="120" stroke="#3b82f6" stroke-width="3" stroke-dasharray="8,4"/>
  
  <!-- Glow effect -->
  <circle cx="120" cy="115" r="50" fill="none" stroke="#3b82f6" stroke-width="1" opacity="0.3"/>
  <circle cx="120" cy="115" r="60" fill="none" stroke="#3b82f6" stroke-width="1" opacity="0.2"/>
</svg> 