<svg width="400" height="300" viewBox="0 0 400 300" xmlns="http://www.w3.org/2000/svg">
  <defs>
    <linearGradient id="eyeGradient" x1="0%" y1="0%" x2="100%" y2="100%">
      <stop offset="0%" style="stop-color:#06b6d4;stop-opacity:1" />
      <stop offset="100%" style="stop-color:#0891b2;stop-opacity:1" />
    </linearGradient>
    <linearGradient id="pupilGradient" x1="0%" y1="0%" x2="100%" y2="100%">
      <stop offset="0%" style="stop-color:#1f2937;stop-opacity:1" />
      <stop offset="100%" style="stop-color:#111827;stop-opacity:1" />
    </linearGradient>
    <linearGradient id="cameraGradient" x1="0%" y1="0%" x2="100%" y2="100%">
      <stop offset="0%" style="stop-color:#64748b;stop-opacity:1" />
      <stop offset="100%" style="stop-color:#475569;stop-opacity:1" />
    </linearGradient>
  </defs>
  
  <!-- Background -->
  <rect width="400" height="300" fill="#0f172a" rx="20"/>
  
  <!-- Camera body -->
  <rect x="250" y="80" width="120" height="80" fill="url(#cameraGradient)" rx="12" stroke="#374151" stroke-width="2"/>
  
  <!-- Camera lens -->
  <circle cx="310" cy="120" r="25" fill="#1f2937" stroke="#374151" stroke-width="3"/>
  <circle cx="310" cy="120" r="18" fill="#111827"/>
  <circle cx="310" cy="120" r="12" fill="#000000"/>
  
  <!-- Camera viewfinder -->
  <rect x="280" y="90" width="15" height="8" fill="#4b5563" rx="2"/>
  
  <!-- Eye -->
  <ellipse cx="120" cy="150" rx="80" ry="45" fill="url(#eyeGradient)" stroke="#0891b2" stroke-width="3"/>
  
  <!-- Eye white -->
  <ellipse cx="120" cy="150" rx="70" ry="35" fill="#ffffff"/>
  
  <!-- Iris -->
  <circle cx="120" cy="150" r="25" fill="url(#pupilGradient)"/>
  
  <!-- Pupil -->
  <circle cx="120" cy="150" r="15" fill="#000000"/>
  
  <!-- Eye reflection -->
  <circle cx="115" cy="145" r="5" fill="#ffffff" opacity="0.8"/>
  <circle cx="125" cy="140" r="3" fill="#ffffff" opacity="0.5"/>
  
  <!-- Tracking lines -->
  <line x1="200" y1="150" x2="250" y2="120" stroke="#06b6d4" stroke-width="3" stroke-dasharray="6,3"/>
  <line x1="120" y1="110" x2="120" y2="50" stroke="#06b6d4" stroke-width="2" stroke-dasharray="4,2"/>
  <line x1="120" y1="190" x2="120" y2="250" stroke="#06b6d4" stroke-width="2" stroke-dasharray="4,2"/>
  <line x1="60" y1="150" x2="20" y2="150" stroke="#06b6d4" stroke-width="2" stroke-dasharray="4,2"/>
  
  <!-- Target markers -->
  <g stroke="#06b6d4" stroke-width="2" fill="none">
    <circle cx="80" cy="80" r="8"/>
    <line x1="72" y1="80" x2="88" y2="80"/>
    <line x1="80" y1="72" x2="80" y2="88"/>
  </g>
  
  <g stroke="#06b6d4" stroke-width="2" fill="none">
    <circle cx="160" cy="220" r="8"/>
    <line x1="152" y1="220" x2="168" y2="220"/>
    <line x1="160" y1="212" x2="160" y2="228"/>
  </g>
  
  <g stroke="#06b6d4" stroke-width="2" fill="none">
    <circle cx="320" cy="180" r="8"/>
    <line x1="312" y1="180" x2="328" y2="180"/>
    <line x1="320" y1="172" x2="320" y2="188"/>
  </g>
  
  <!-- Scanning effect -->
  <circle cx="120" cy="150" r="90" fill="none" stroke="#06b6d4" stroke-width="1" opacity="0.3"/>
  <circle cx="120" cy="150" r="100" fill="none" stroke="#06b6d4" stroke-width="1" opacity="0.2"/>
  <circle cx="120" cy="150" r="110" fill="none" stroke="#06b6d4" stroke-width="1" opacity="0.1"/>
</svg> 